<?xml version="1.0" encoding="UTF-8" standalone="no"?>
<svg
   xmlns:dc="http://purl.org/dc/elements/1.1/"
   xmlns:cc="http://creativecommons.org/ns#"
   xmlns:rdf="http://www.w3.org/1999/02/22-rdf-syntax-ns#"
   xmlns:svg="http://www.w3.org/2000/svg"
   xmlns="http://www.w3.org/2000/svg"
   xmlns:sodipodi="http://sodipodi.sourceforge.net/DTD/sodipodi-0.dtd"
   xmlns:inkscape="http://www.inkscape.org/namespaces/inkscape"
   width="16"
   height="16"
   version="1.1"
   viewBox="0 0 16 16"
   id="svg6"
   sodipodi:docname="icon_tree_top.svg"
   inkscape:version="0.92.3 (2405546, 2018-03-11)">
  <metadata
     id="metadata12">
    <rdf:RDF>
      <cc:Work
         rdf:about="">
        <dc:format>image/svg+xml</dc:format>
        <dc:type
           rdf:resource="http://purl.org/dc/dcmitype/StillImage" />
      </cc:Work>
    </rdf:RDF>
  </metadata>
  <defs
     id="defs10" />
  <sodipodi:namedview
     pagecolor="#ffffff"
     bordercolor="#666666"
     borderopacity="1"
     objecttolerance="10"
     gridtolerance="10"
     guidetolerance="10"
     inkscape:pageopacity="0"
     inkscape:pageshadow="2"
     inkscape:window-width="1366"
     inkscape:window-height="717"
     id="namedview8"
     showgrid="false"
     inkscape:zoom="15.815918"
     inkscape:cx="12.771437"
     inkscape:cy="9.7824458"
     inkscape:window-x="0"
     inkscape:window-y="0"
     inkscape:window-maximized="1"
     inkscape:current-layer="svg6" />
  <path
     style="fill:#a5efac"
     inkscape:connector-curvature="0"
     id="path2"
     d="m 1,1 v 13 c 5.52e-5,0.55226 0.44774,0.99994 1,1 H 15 V 13 H 3 V 7 h 2 v 3 c 5.52e-5,0.55226 0.44774,0.99994 1,1 h 9 V 9 H 7 V 7 h 8 V 5 H 3 V 3 H 15 V 1 Z" />
  <path
     style="opacity:1;fill:#ffffff;fill-opacity:1;stroke:none"
     d="M 3,3 H 15 V 1 H 1 L 0.98002532,14.150597 1.3435831,14.798679 2.0548918,15.019975 15,15 V 13 H 3 V 7 H 5 L 4.9791609,10.214689 5.3269118,10.736316 5.864345,10.989225 15,11 V 9 H 7 V 7 h 8 V 5 H 3 Z"
     id="path17"
     inkscape:connector-curvature="0" />
</svg>
